<svg xmlns="http://www.w3.org/2000/svg" xmlns:xlink="http://www.w3.org/1999/xlink" width="247" zoomAndPan="magnify" viewBox="0 0 185.25 81.749997" height="109" preserveAspectRatio="xMidYMid meet" version="1.0"><defs><g/><clipPath id="d70141fc5f"><path d="M 0 20 L 39.589844 20 L 39.589844 60 L 0 60 Z M 0 20 " clip-rule="nonzero"/></clipPath><clipPath id="bf10733e98"><path d="M 20 41 L 39.589844 41 L 39.589844 60 L 20 60 Z M 20 41 " clip-rule="nonzero"/></clipPath><clipPath id="874a3bad96"><path d="M 0 20 L 39.589844 20 L 39.589844 60 L 0 60 Z M 0 20 " clip-rule="nonzero"/></clipPath><clipPath id="40f19fa89d"><path d="M 20 41 L 39.589844 41 L 39.589844 60 L 20 60 Z M 20 41 " clip-rule="nonzero"/></clipPath></defs><g fill="#eaedff" fill-opacity="1"><g transform="translate(55.518915, 52.842383)"><g><path d="M 17.640625 0 L 12.515625 -7.703125 L 8 0 L 1.046875 0 L 9.109375 -12.796875 L 0.859375 -25.15625 L 8 -25.15625 L 13.046875 -17.5625 L 17.484375 -25.15625 L 24.453125 -25.15625 L 16.453125 -12.46875 L 24.765625 0 Z M 17.640625 0 "/></g></g></g><g fill="#eaedff" fill-opacity="1"><g transform="translate(83.907568, 52.842383)"><g><path d="M 8.359375 -20.25 L 8.359375 -15.15625 L 16.5625 -15.15625 L 16.5625 -10.4375 L 8.359375 -10.4375 L 8.359375 -4.90625 L 17.640625 -4.90625 L 17.640625 0 L 2.21875 0 L 2.21875 -25.15625 L 17.640625 -25.15625 L 17.640625 -20.25 Z M 8.359375 -20.25 "/></g></g></g><g fill="#eaedff" fill-opacity="1"><g transform="translate(106.059505, 52.842383)"><g><path d="M 15.046875 0 L 9.828125 -9.5 L 8.359375 -9.5 L 8.359375 0 L 2.21875 0 L 2.21875 -25.15625 L 12.515625 -25.15625 C 14.492188 -25.15625 16.179688 -24.804688 17.578125 -24.109375 C 18.972656 -23.421875 20.015625 -22.472656 20.703125 -21.265625 C 21.398438 -20.066406 21.75 -18.722656 21.75 -17.234375 C 21.75 -15.566406 21.273438 -14.070312 20.328125 -12.75 C 19.390625 -11.4375 18.003906 -10.507812 16.171875 -9.96875 L 21.96875 0 Z M 8.359375 -13.828125 L 12.15625 -13.828125 C 13.269531 -13.828125 14.109375 -14.101562 14.671875 -14.65625 C 15.234375 -15.207031 15.515625 -15.984375 15.515625 -16.984375 C 15.515625 -17.941406 15.234375 -18.695312 14.671875 -19.25 C 14.109375 -19.800781 13.269531 -20.078125 12.15625 -20.078125 L 8.359375 -20.078125 Z M 8.359375 -13.828125 "/></g></g></g><g fill="#eaedff" fill-opacity="1"><g transform="translate(132.190031, 52.842383)"><g><path d="M 14.125 0.25 C 11.757812 0.25 9.585938 -0.296875 7.609375 -1.390625 C 5.640625 -2.492188 4.078125 -4.03125 2.921875 -6 C 1.765625 -7.976562 1.1875 -10.195312 1.1875 -12.65625 C 1.1875 -15.113281 1.765625 -17.320312 2.921875 -19.28125 C 4.078125 -21.238281 5.640625 -22.765625 7.609375 -23.859375 C 9.585938 -24.960938 11.757812 -25.515625 14.125 -25.515625 C 16.488281 -25.515625 18.65625 -24.960938 20.625 -23.859375 C 22.59375 -22.765625 24.144531 -21.238281 25.28125 -19.28125 C 26.414062 -17.320312 26.984375 -15.113281 26.984375 -12.65625 C 26.984375 -10.195312 26.410156 -7.976562 25.265625 -6 C 24.117188 -4.03125 22.566406 -2.492188 20.609375 -1.390625 C 18.648438 -0.296875 16.488281 0.25 14.125 0.25 Z M 14.125 -5.34375 C 16.132812 -5.34375 17.738281 -6.007812 18.9375 -7.34375 C 20.144531 -8.6875 20.75 -10.457031 20.75 -12.65625 C 20.75 -14.875 20.144531 -16.644531 18.9375 -17.96875 C 17.738281 -19.300781 16.132812 -19.96875 14.125 -19.96875 C 12.09375 -19.96875 10.472656 -19.304688 9.265625 -17.984375 C 8.054688 -16.671875 7.453125 -14.894531 7.453125 -12.65625 C 7.453125 -10.425781 8.054688 -8.648438 9.265625 -7.328125 C 10.472656 -6.003906 12.09375 -5.34375 14.125 -5.34375 Z M 14.125 -5.34375 "/></g></g></g><path fill="#5bf2ff" d="M 24.550781 18.039062 C 24.550781 18.367188 24.515625 18.691406 24.453125 19.011719 C 24.390625 19.332031 24.296875 19.644531 24.171875 19.945312 C 24.046875 20.25 23.890625 20.535156 23.710938 20.808594 C 23.527344 21.078125 23.320312 21.332031 23.089844 21.5625 C 22.859375 21.792969 22.609375 22 22.335938 22.179688 C 22.0625 22.363281 21.777344 22.515625 21.476562 22.640625 C 21.171875 22.765625 20.863281 22.859375 20.542969 22.925781 C 20.21875 22.988281 19.898438 23.019531 19.570312 23.019531 C 19.242188 23.019531 18.917969 22.988281 18.597656 22.925781 C 18.277344 22.859375 17.964844 22.765625 17.664062 22.640625 C 17.363281 22.515625 17.074219 22.363281 16.804688 22.179688 C 16.53125 22 16.28125 21.792969 16.050781 21.5625 C 15.816406 21.332031 15.609375 21.078125 15.429688 20.808594 C 15.246094 20.535156 15.09375 20.25 14.96875 19.945312 C 14.84375 19.644531 14.75 19.332031 14.6875 19.011719 C 14.621094 18.691406 14.589844 18.367188 14.589844 18.039062 C 14.589844 17.714844 14.621094 17.390625 14.6875 17.070312 C 14.75 16.75 14.84375 16.4375 14.96875 16.136719 C 15.09375 15.832031 15.246094 15.546875 15.429688 15.273438 C 15.609375 15.003906 15.816406 14.75 16.050781 14.519531 C 16.28125 14.289062 16.53125 14.082031 16.804688 13.902344 C 17.074219 13.71875 17.363281 13.566406 17.664062 13.441406 C 17.964844 13.316406 18.277344 13.222656 18.597656 13.15625 C 18.917969 13.09375 19.242188 13.0625 19.570312 13.0625 C 19.898438 13.0625 20.21875 13.09375 20.542969 13.15625 C 20.863281 13.222656 21.171875 13.316406 21.476562 13.441406 C 21.777344 13.566406 22.0625 13.71875 22.335938 13.902344 C 22.609375 14.082031 22.859375 14.289062 23.089844 14.519531 C 23.320312 14.75 23.527344 15.003906 23.710938 15.273438 C 23.890625 15.546875 24.046875 15.832031 24.171875 16.136719 C 24.296875 16.4375 24.390625 16.75 24.453125 17.070312 C 24.515625 17.390625 24.550781 17.714844 24.550781 18.039062 Z M 24.550781 18.039062 " fill-opacity="1" fill-rule="nonzero"/><path fill="#5bf2ff" d="M 24.550781 62.972656 C 24.550781 63.296875 24.515625 63.621094 24.453125 63.941406 C 24.390625 64.261719 24.296875 64.574219 24.171875 64.875 C 24.046875 65.179688 23.890625 65.464844 23.710938 65.738281 C 23.527344 66.007812 23.320312 66.261719 23.089844 66.492188 C 22.859375 66.722656 22.609375 66.929688 22.335938 67.113281 C 22.0625 67.292969 21.777344 67.445312 21.476562 67.570312 C 21.171875 67.695312 20.863281 67.792969 20.542969 67.855469 C 20.21875 67.917969 19.898438 67.949219 19.570312 67.949219 C 19.242188 67.949219 18.917969 67.917969 18.597656 67.855469 C 18.277344 67.792969 17.964844 67.695312 17.664062 67.570312 C 17.363281 67.445312 17.074219 67.292969 16.804688 67.113281 C 16.53125 66.929688 16.28125 66.722656 16.050781 66.492188 C 15.816406 66.261719 15.609375 66.007812 15.429688 65.738281 C 15.246094 65.464844 15.09375 65.179688 14.96875 64.875 C 14.84375 64.574219 14.75 64.261719 14.6875 63.941406 C 14.621094 63.621094 14.589844 63.296875 14.589844 62.972656 C 14.589844 62.644531 14.621094 62.320312 14.6875 62 C 14.75 61.679688 14.84375 61.367188 14.96875 61.066406 C 15.09375 60.761719 15.246094 60.476562 15.429688 60.203125 C 15.609375 59.933594 15.816406 59.679688 16.050781 59.449219 C 16.28125 59.21875 16.53125 59.011719 16.804688 58.832031 C 17.074219 58.648438 17.363281 58.496094 17.664062 58.371094 C 17.964844 58.246094 18.277344 58.152344 18.597656 58.085938 C 18.917969 58.023438 19.242188 57.992188 19.570312 57.992188 C 19.898438 57.992188 20.21875 58.023438 20.542969 58.085938 C 20.863281 58.152344 21.171875 58.246094 21.476562 58.371094 C 21.777344 58.496094 22.0625 58.648438 22.335938 58.832031 C 22.609375 59.011719 22.859375 59.21875 23.089844 59.449219 C 23.320312 59.679688 23.527344 59.933594 23.710938 60.203125 C 23.890625 60.476562 24.046875 60.761719 24.171875 61.066406 C 24.296875 61.367188 24.390625 61.679688 24.453125 62 C 24.515625 62.320312 24.550781 62.644531 24.550781 62.972656 Z M 24.550781 62.972656 " fill-opacity="1" fill-rule="nonzero"/><g clip-path="url(#d70141fc5f)"><path fill="#0071bc" d="M 37.28125 22.328125 C 36.984375 22.035156 36.664062 21.773438 36.320312 21.542969 C 35.972656 21.3125 35.609375 21.121094 35.222656 20.960938 C 34.839844 20.804688 34.445312 20.683594 34.035156 20.601562 C 33.628906 20.519531 33.214844 20.480469 32.800781 20.480469 C 32.386719 20.480469 31.972656 20.519531 31.566406 20.601562 C 31.15625 20.683594 30.761719 20.804688 30.378906 20.960938 C 29.992188 21.121094 29.628906 21.3125 29.28125 21.542969 C 28.9375 21.773438 28.617188 22.035156 28.320312 22.328125 L 1.859375 48.765625 C 1.566406 49.058594 1.300781 49.378906 1.070312 49.722656 C 0.839844 50.070312 0.644531 50.433594 0.484375 50.820312 C 0.324219 51.203125 0.203125 51.601562 0.121094 52.007812 C 0.0390625 52.417969 0 52.828125 0 53.246094 C 0 53.660156 0.0390625 54.074219 0.121094 54.480469 C 0.203125 54.886719 0.324219 55.285156 0.484375 55.667969 C 0.644531 56.054688 0.839844 56.417969 1.070312 56.765625 C 1.300781 57.109375 1.566406 57.429688 1.859375 57.722656 C 2.15625 58.015625 2.476562 58.277344 2.820312 58.507812 C 3.167969 58.738281 3.53125 58.933594 3.917969 59.089844 C 4.300781 59.25 4.695312 59.371094 5.105469 59.449219 C 5.511719 59.53125 5.921875 59.570312 6.339844 59.570312 C 6.753906 59.570312 7.167969 59.53125 7.574219 59.449219 C 7.980469 59.371094 8.378906 59.25 8.761719 59.089844 C 9.144531 58.933594 9.511719 58.738281 9.855469 58.507812 C 10.203125 58.277344 10.523438 58.015625 10.816406 57.722656 L 37.28125 31.308594 C 37.574219 31.011719 37.835938 30.691406 38.066406 30.347656 C 38.300781 30 38.496094 29.632812 38.652344 29.25 C 38.8125 28.863281 38.933594 28.464844 39.015625 28.058594 C 39.097656 27.648438 39.136719 27.234375 39.136719 26.820312 C 39.136719 26.402344 39.097656 25.988281 39.015625 25.582031 C 38.933594 25.171875 38.8125 24.773438 38.652344 24.390625 C 38.496094 24.003906 38.300781 23.640625 38.066406 23.292969 C 37.835938 22.945312 37.574219 22.625 37.28125 22.328125 Z M 37.28125 22.328125 " fill-opacity="1" fill-rule="nonzero"/></g><path fill="#0071bc" d="M 9.484375 38.9375 L 18.441406 29.980469 L 10.84375 22.328125 C 10.550781 22.035156 10.230469 21.773438 9.882812 21.542969 C 9.539062 21.3125 9.171875 21.121094 8.789062 20.960938 C 8.402344 20.804688 8.007812 20.683594 7.601562 20.601562 C 7.191406 20.519531 6.78125 20.480469 6.363281 20.480469 C 5.949219 20.480469 5.539062 20.519531 5.128906 20.601562 C 4.722656 20.683594 4.328125 20.804688 3.941406 20.960938 C 3.558594 21.121094 3.191406 21.3125 2.847656 21.542969 C 2.5 21.773438 2.179688 22.035156 1.886719 22.328125 C 1.589844 22.625 1.328125 22.941406 1.097656 23.289062 C 0.863281 23.632812 0.667969 24 0.511719 24.382812 C 0.351562 24.769531 0.230469 25.164062 0.148438 25.574219 C 0.0664062 25.980469 0.0273438 26.390625 0.0273438 26.808594 C 0.0273438 27.226562 0.0664062 27.636719 0.148438 28.042969 C 0.230469 28.453125 0.351562 28.847656 0.511719 29.234375 C 0.667969 29.617188 0.863281 29.984375 1.097656 30.328125 C 1.328125 30.675781 1.589844 30.992188 1.886719 31.289062 Z M 9.484375 38.9375 " fill-opacity="1" fill-rule="nonzero"/><g clip-path="url(#bf10733e98)"><path fill="#0071bc" d="M 29.648438 41.140625 L 20.691406 50.097656 L 28.296875 57.742188 C 28.589844 58.039062 28.910156 58.300781 29.257812 58.527344 C 29.601562 58.757812 29.96875 58.953125 30.351562 59.113281 C 30.734375 59.269531 31.132812 59.390625 31.539062 59.472656 C 31.945312 59.550781 32.359375 59.59375 32.773438 59.59375 C 33.191406 59.59375 33.601562 59.550781 34.007812 59.472656 C 34.417969 59.390625 34.8125 59.269531 35.195312 59.113281 C 35.582031 58.953125 35.945312 58.757812 36.292969 58.527344 C 36.636719 58.300781 36.957031 58.039062 37.253906 57.742188 C 37.546875 57.449219 37.808594 57.128906 38.039062 56.78125 C 38.265625 56.4375 38.460938 56.070312 38.621094 55.6875 C 38.777344 55.304688 38.898438 54.90625 38.980469 54.5 C 39.058594 54.09375 39.101562 53.679688 39.101562 53.265625 C 39.101562 52.851562 39.058594 52.4375 38.980469 52.03125 C 38.898438 51.621094 38.777344 51.226562 38.621094 50.84375 C 38.460938 50.457031 38.265625 50.09375 38.039062 49.746094 C 37.808594 49.402344 37.546875 49.082031 37.253906 48.785156 Z M 29.648438 41.140625 " fill-opacity="1" fill-rule="nonzero"/></g><g fill="#eaedff" fill-opacity="1"><g transform="translate(55.518915, 52.842383)"><g><path d="M 17.640625 0 L 12.515625 -7.703125 L 8 0 L 1.046875 0 L 9.109375 -12.796875 L 0.859375 -25.15625 L 8 -25.15625 L 13.046875 -17.5625 L 17.484375 -25.15625 L 24.453125 -25.15625 L 16.453125 -12.46875 L 24.765625 0 Z M 17.640625 0 "/></g></g></g><g fill="#eaedff" fill-opacity="1"><g transform="translate(83.907568, 52.842383)"><g><path d="M 8.359375 -20.25 L 8.359375 -15.15625 L 16.5625 -15.15625 L 16.5625 -10.4375 L 8.359375 -10.4375 L 8.359375 -4.90625 L 17.640625 -4.90625 L 17.640625 0 L 2.21875 0 L 2.21875 -25.15625 L 17.640625 -25.15625 L 17.640625 -20.25 Z M 8.359375 -20.25 "/></g></g></g><g fill="#eaedff" fill-opacity="1"><g transform="translate(106.059505, 52.842383)"><g><path d="M 15.046875 0 L 9.828125 -9.5 L 8.359375 -9.5 L 8.359375 0 L 2.21875 0 L 2.21875 -25.15625 L 12.515625 -25.15625 C 14.492188 -25.15625 16.179688 -24.804688 17.578125 -24.109375 C 18.972656 -23.421875 20.015625 -22.472656 20.703125 -21.265625 C 21.398438 -20.066406 21.75 -18.722656 21.75 -17.234375 C 21.75 -15.566406 21.273438 -14.070312 20.328125 -12.75 C 19.390625 -11.4375 18.003906 -10.507812 16.171875 -9.96875 L 21.96875 0 Z M 8.359375 -13.828125 L 12.15625 -13.828125 C 13.269531 -13.828125 14.109375 -14.101562 14.671875 -14.65625 C 15.234375 -15.207031 15.515625 -15.984375 15.515625 -16.984375 C 15.515625 -17.941406 15.234375 -18.695312 14.671875 -19.25 C 14.109375 -19.800781 13.269531 -20.078125 12.15625 -20.078125 L 8.359375 -20.078125 Z M 8.359375 -13.828125 "/></g></g></g><g fill="#eaedff" fill-opacity="1"><g transform="translate(132.190031, 52.842383)"><g><path d="M 14.125 0.25 C 11.757812 0.25 9.585938 -0.296875 7.609375 -1.390625 C 5.640625 -2.492188 4.078125 -4.03125 2.921875 -6 C 1.765625 -7.976562 1.1875 -10.195312 1.1875 -12.65625 C 1.1875 -15.113281 1.765625 -17.320312 2.921875 -19.28125 C 4.078125 -21.238281 5.640625 -22.765625 7.609375 -23.859375 C 9.585938 -24.960938 11.757812 -25.515625 14.125 -25.515625 C 16.488281 -25.515625 18.65625 -24.960938 20.625 -23.859375 C 22.59375 -22.765625 24.144531 -21.238281 25.28125 -19.28125 C 26.414062 -17.320312 26.984375 -15.113281 26.984375 -12.65625 C 26.984375 -10.195312 26.410156 -7.976562 25.265625 -6 C 24.117188 -4.03125 22.566406 -2.492188 20.609375 -1.390625 C 18.648438 -0.296875 16.488281 0.25 14.125 0.25 Z M 14.125 -5.34375 C 16.132812 -5.34375 17.738281 -6.007812 18.9375 -7.34375 C 20.144531 -8.6875 20.75 -10.457031 20.75 -12.65625 C 20.75 -14.875 20.144531 -16.644531 18.9375 -17.96875 C 17.738281 -19.300781 16.132812 -19.96875 14.125 -19.96875 C 12.09375 -19.96875 10.472656 -19.304688 9.265625 -17.984375 C 8.054688 -16.671875 7.453125 -14.894531 7.453125 -12.65625 C 7.453125 -10.425781 8.054688 -8.648438 9.265625 -7.328125 C 10.472656 -6.003906 12.09375 -5.34375 14.125 -5.34375 Z M 14.125 -5.34375 "/></g></g></g><path fill="#5bf2ff" d="M 24.550781 18.039062 C 24.550781 18.367188 24.515625 18.691406 24.453125 19.011719 C 24.390625 19.332031 24.296875 19.644531 24.171875 19.945312 C 24.046875 20.25 23.890625 20.535156 23.710938 20.808594 C 23.527344 21.078125 23.320312 21.332031 23.089844 21.5625 C 22.859375 21.792969 22.609375 22 22.335938 22.179688 C 22.0625 22.363281 21.777344 22.515625 21.476562 22.640625 C 21.171875 22.765625 20.863281 22.859375 20.542969 22.925781 C 20.21875 22.988281 19.898438 23.019531 19.570312 23.019531 C 19.242188 23.019531 18.917969 22.988281 18.597656 22.925781 C 18.277344 22.859375 17.964844 22.765625 17.664062 22.640625 C 17.363281 22.515625 17.074219 22.363281 16.804688 22.179688 C 16.53125 22 16.28125 21.792969 16.050781 21.5625 C 15.816406 21.332031 15.609375 21.078125 15.429688 20.808594 C 15.246094 20.535156 15.09375 20.25 14.96875 19.945312 C 14.84375 19.644531 14.75 19.332031 14.6875 19.011719 C 14.621094 18.691406 14.589844 18.367188 14.589844 18.039062 C 14.589844 17.714844 14.621094 17.390625 14.6875 17.070312 C 14.75 16.75 14.84375 16.4375 14.96875 16.136719 C 15.09375 15.832031 15.246094 15.546875 15.429688 15.273438 C 15.609375 15.003906 15.816406 14.75 16.050781 14.519531 C 16.28125 14.289062 16.53125 14.082031 16.804688 13.902344 C 17.074219 13.71875 17.363281 13.566406 17.664062 13.441406 C 17.964844 13.316406 18.277344 13.222656 18.597656 13.15625 C 18.917969 13.09375 19.242188 13.0625 19.570312 13.0625 C 19.898438 13.0625 20.21875 13.09375 20.542969 13.15625 C 20.863281 13.222656 21.171875 13.316406 21.476562 13.441406 C 21.777344 13.566406 22.0625 13.71875 22.335938 13.902344 C 22.609375 14.082031 22.859375 14.289062 23.089844 14.519531 C 23.320312 14.75 23.527344 15.003906 23.710938 15.273438 C 23.890625 15.546875 24.046875 15.832031 24.171875 16.136719 C 24.296875 16.4375 24.390625 16.75 24.453125 17.070312 C 24.515625 17.390625 24.550781 17.714844 24.550781 18.039062 Z M 24.550781 18.039062 " fill-opacity="1" fill-rule="nonzero"/><path fill="#5bf2ff" d="M 24.550781 62.972656 C 24.550781 63.296875 24.515625 63.621094 24.453125 63.941406 C 24.390625 64.261719 24.296875 64.574219 24.171875 64.875 C 24.046875 65.179688 23.890625 65.464844 23.710938 65.738281 C 23.527344 66.007812 23.320312 66.261719 23.089844 66.492188 C 22.859375 66.722656 22.609375 66.929688 22.335938 67.113281 C 22.0625 67.292969 21.777344 67.445312 21.476562 67.570312 C 21.171875 67.695312 20.863281 67.792969 20.542969 67.855469 C 20.21875 67.917969 19.898438 67.949219 19.570312 67.949219 C 19.242188 67.949219 18.917969 67.917969 18.597656 67.855469 C 18.277344 67.792969 17.964844 67.695312 17.664062 67.570312 C 17.363281 67.445312 17.074219 67.292969 16.804688 67.113281 C 16.53125 66.929688 16.28125 66.722656 16.050781 66.492188 C 15.816406 66.261719 15.609375 66.007812 15.429688 65.738281 C 15.246094 65.464844 15.09375 65.179688 14.96875 64.875 C 14.84375 64.574219 14.75 64.261719 14.6875 63.941406 C 14.621094 63.621094 14.589844 63.296875 14.589844 62.972656 C 14.589844 62.644531 14.621094 62.320312 14.6875 62 C 14.75 61.679688 14.84375 61.367188 14.96875 61.066406 C 15.09375 60.761719 15.246094 60.476562 15.429688 60.203125 C 15.609375 59.933594 15.816406 59.679688 16.050781 59.449219 C 16.28125 59.21875 16.53125 59.011719 16.804688 58.832031 C 17.074219 58.648438 17.363281 58.496094 17.664062 58.371094 C 17.964844 58.246094 18.277344 58.152344 18.597656 58.085938 C 18.917969 58.023438 19.242188 57.992188 19.570312 57.992188 C 19.898438 57.992188 20.21875 58.023438 20.542969 58.085938 C 20.863281 58.152344 21.171875 58.246094 21.476562 58.371094 C 21.777344 58.496094 22.0625 58.648438 22.335938 58.832031 C 22.609375 59.011719 22.859375 59.21875 23.089844 59.449219 C 23.320312 59.679688 23.527344 59.933594 23.710938 60.203125 C 23.890625 60.476562 24.046875 60.761719 24.171875 61.066406 C 24.296875 61.367188 24.390625 61.679688 24.453125 62 C 24.515625 62.320312 24.550781 62.644531 24.550781 62.972656 Z M 24.550781 62.972656 " fill-opacity="1" fill-rule="nonzero"/><g clip-path="url(#874a3bad96)"><path fill="#0071bc" d="M 37.28125 22.328125 C 36.984375 22.035156 36.664062 21.773438 36.320312 21.542969 C 35.972656 21.3125 35.609375 21.121094 35.222656 20.960938 C 34.839844 20.804688 34.445312 20.683594 34.035156 20.601562 C 33.628906 20.519531 33.214844 20.480469 32.800781 20.480469 C 32.386719 20.480469 31.972656 20.519531 31.566406 20.601562 C 31.15625 20.683594 30.761719 20.804688 30.378906 20.960938 C 29.992188 21.121094 29.628906 21.3125 29.28125 21.542969 C 28.9375 21.773438 28.617188 22.035156 28.320312 22.328125 L 1.859375 48.765625 C 1.566406 49.058594 1.300781 49.378906 1.070312 49.722656 C 0.839844 50.070312 0.644531 50.433594 0.484375 50.820312 C 0.324219 51.203125 0.203125 51.601562 0.121094 52.007812 C 0.0390625 52.417969 0 52.828125 0 53.246094 C 0 53.660156 0.0390625 54.074219 0.121094 54.480469 C 0.203125 54.886719 0.324219 55.285156 0.484375 55.667969 C 0.644531 56.054688 0.839844 56.417969 1.070312 56.765625 C 1.300781 57.109375 1.566406 57.429688 1.859375 57.722656 C 2.15625 58.015625 2.476562 58.277344 2.820312 58.507812 C 3.167969 58.738281 3.53125 58.933594 3.917969 59.089844 C 4.300781 59.25 4.695312 59.371094 5.105469 59.449219 C 5.511719 59.53125 5.921875 59.570312 6.339844 59.570312 C 6.753906 59.570312 7.167969 59.53125 7.574219 59.449219 C 7.980469 59.371094 8.378906 59.25 8.761719 59.089844 C 9.144531 58.933594 9.511719 58.738281 9.855469 58.507812 C 10.203125 58.277344 10.523438 58.015625 10.816406 57.722656 L 37.28125 31.308594 C 37.574219 31.011719 37.835938 30.691406 38.066406 30.347656 C 38.300781 30 38.496094 29.632812 38.652344 29.25 C 38.8125 28.863281 38.933594 28.464844 39.015625 28.058594 C 39.097656 27.648438 39.136719 27.234375 39.136719 26.820312 C 39.136719 26.402344 39.097656 25.988281 39.015625 25.582031 C 38.933594 25.171875 38.8125 24.773438 38.652344 24.390625 C 38.496094 24.003906 38.300781 23.640625 38.066406 23.292969 C 37.835938 22.945312 37.574219 22.625 37.28125 22.328125 Z M 37.28125 22.328125 " fill-opacity="1" fill-rule="nonzero"/></g><path fill="#0071bc" d="M 9.484375 38.9375 L 18.441406 29.980469 L 10.84375 22.328125 C 10.550781 22.035156 10.230469 21.773438 9.882812 21.542969 C 9.539062 21.3125 9.171875 21.121094 8.789062 20.960938 C 8.402344 20.804688 8.007812 20.683594 7.601562 20.601562 C 7.191406 20.519531 6.78125 20.480469 6.363281 20.480469 C 5.949219 20.480469 5.539062 20.519531 5.128906 20.601562 C 4.722656 20.683594 4.328125 20.804688 3.941406 20.960938 C 3.558594 21.121094 3.191406 21.3125 2.847656 21.542969 C 2.5 21.773438 2.179688 22.035156 1.886719 22.328125 C 1.589844 22.625 1.328125 22.941406 1.097656 23.289062 C 0.863281 23.632812 0.667969 24 0.511719 24.382812 C 0.351562 24.769531 0.230469 25.164062 0.148438 25.574219 C 0.0664062 25.980469 0.0273438 26.390625 0.0273438 26.808594 C 0.0273438 27.226562 0.0664062 27.636719 0.148438 28.042969 C 0.230469 28.453125 0.351562 28.847656 0.511719 29.234375 C 0.667969 29.617188 0.863281 29.984375 1.097656 30.328125 C 1.328125 30.675781 1.589844 30.992188 1.886719 31.289062 Z M 9.484375 38.9375 " fill-opacity="1" fill-rule="nonzero"/><g clip-path="url(#40f19fa89d)"><path fill="#0071bc" d="M 29.648438 41.140625 L 20.691406 50.097656 L 28.296875 57.742188 C 28.589844 58.039062 28.910156 58.300781 29.257812 58.527344 C 29.601562 58.757812 29.96875 58.953125 30.351562 59.113281 C 30.734375 59.269531 31.132812 59.390625 31.539062 59.472656 C 31.945312 59.550781 32.359375 59.59375 32.773438 59.59375 C 33.191406 59.59375 33.601562 59.550781 34.007812 59.472656 C 34.417969 59.390625 34.8125 59.269531 35.195312 59.113281 C 35.582031 58.953125 35.945312 58.757812 36.292969 58.527344 C 36.636719 58.300781 36.957031 58.039062 37.253906 57.742188 C 37.546875 57.449219 37.808594 57.128906 38.039062 56.78125 C 38.265625 56.4375 38.460938 56.070312 38.621094 55.6875 C 38.777344 55.304688 38.898438 54.90625 38.980469 54.5 C 39.058594 54.09375 39.101562 53.679688 39.101562 53.265625 C 39.101562 52.851562 39.058594 52.4375 38.980469 52.03125 C 38.898438 51.621094 38.777344 51.226562 38.621094 50.84375 C 38.460938 50.457031 38.265625 50.09375 38.039062 49.746094 C 37.808594 49.402344 37.546875 49.082031 37.253906 48.785156 Z M 29.648438 41.140625 " fill-opacity="1" fill-rule="nonzero"/></g></svg>