<svg xmlns="http://www.w3.org/2000/svg" xmlns:xlink="http://www.w3.org/1999/xlink" width="208" zoomAndPan="magnify" viewBox="0 0 156 89.249998" height="119" preserveAspectRatio="xMidYMid meet" version="1.0"><defs><g/><clipPath id="a2293a3e42"><path d="M 16 14.050781 L 28 14.050781 L 28 25 L 16 25 Z M 16 14.050781 " clip-rule="nonzero"/></clipPath><clipPath id="6aa547cf34"><path d="M 0.648438 22 L 43.789062 22 L 43.789062 65 L 0.648438 65 Z M 0.648438 22 " clip-rule="nonzero"/></clipPath><clipPath id="e9a8af9cf5"><path d="M 0.648438 22 L 21 22 L 21 43 L 0.648438 43 Z M 0.648438 22 " clip-rule="nonzero"/></clipPath><clipPath id="b162e2b085"><path d="M 23 44 L 43.789062 44 L 43.789062 65 L 23 65 Z M 23 44 " clip-rule="nonzero"/></clipPath></defs><g fill="#eaedff" fill-opacity="1"><g transform="translate(47.537654, 57.391928)"><g><path d="M 9.078125 -22.015625 L 9.078125 -16.484375 L 18 -16.484375 L 18 -11.34375 L 9.078125 -11.34375 L 9.078125 -5.34375 L 19.171875 -5.34375 L 19.171875 0 L 2.421875 0 L 2.421875 -27.359375 L 19.171875 -27.359375 L 19.171875 -22.015625 Z M 9.078125 -22.015625 "/></g></g></g><g fill="#eaedff" fill-opacity="1"><g transform="translate(71.615166, 57.391928)"><g><path d="M 16.359375 0 L 10.671875 -10.328125 L 9.078125 -10.328125 L 9.078125 0 L 2.421875 0 L 2.421875 -27.359375 L 13.59375 -27.359375 C 15.75 -27.359375 17.585938 -26.976562 19.109375 -26.21875 C 20.628906 -25.46875 21.765625 -24.4375 22.515625 -23.125 C 23.273438 -21.8125 23.65625 -20.351562 23.65625 -18.75 C 23.65625 -16.925781 23.140625 -15.300781 22.109375 -13.875 C 21.085938 -12.445312 19.578125 -11.429688 17.578125 -10.828125 L 23.890625 0 Z M 9.078125 -15.046875 L 13.203125 -15.046875 C 14.429688 -15.046875 15.347656 -15.34375 15.953125 -15.9375 C 16.566406 -16.53125 16.875 -17.375 16.875 -18.46875 C 16.875 -19.507812 16.566406 -20.328125 15.953125 -20.921875 C 15.347656 -21.523438 14.429688 -21.828125 13.203125 -21.828125 L 9.078125 -21.828125 Z M 9.078125 -15.046875 "/></g></g></g><g fill="#eaedff" fill-opacity="1"><g transform="translate(100.017109, 57.391928)"><g><path d="M 15.359375 0.265625 C 12.785156 0.265625 10.425781 -0.328125 8.28125 -1.515625 C 6.132812 -2.710938 4.429688 -4.382812 3.171875 -6.53125 C 1.910156 -8.675781 1.28125 -11.082031 1.28125 -13.75 C 1.28125 -16.425781 1.910156 -18.828125 3.171875 -20.953125 C 4.429688 -23.085938 6.132812 -24.753906 8.28125 -25.953125 C 10.425781 -27.148438 12.785156 -27.75 15.359375 -27.75 C 17.929688 -27.75 20.285156 -27.148438 22.421875 -25.953125 C 24.566406 -24.753906 26.253906 -23.085938 27.484375 -20.953125 C 28.722656 -18.828125 29.34375 -16.425781 29.34375 -13.75 C 29.34375 -11.082031 28.71875 -8.675781 27.46875 -6.53125 C 26.226562 -4.382812 24.539062 -2.710938 22.40625 -1.515625 C 20.28125 -0.328125 17.929688 0.265625 15.359375 0.265625 Z M 15.359375 -5.8125 C 17.535156 -5.8125 19.28125 -6.535156 20.59375 -7.984375 C 21.90625 -9.441406 22.5625 -11.363281 22.5625 -13.75 C 22.5625 -16.164062 21.90625 -18.09375 20.59375 -19.53125 C 19.28125 -20.976562 17.535156 -21.703125 15.359375 -21.703125 C 13.148438 -21.703125 11.390625 -20.988281 10.078125 -19.5625 C 8.765625 -18.132812 8.109375 -16.195312 8.109375 -13.75 C 8.109375 -11.332031 8.765625 -9.40625 10.078125 -7.96875 C 11.390625 -6.53125 13.148438 -5.8125 15.359375 -5.8125 Z M 15.359375 -5.8125 "/></g></g></g><g clip-path="url(#a2293a3e42)"><path fill="#5bf2ff" d="M 27.332031 19.566406 C 27.332031 19.921875 27.300781 20.273438 27.230469 20.625 C 27.160156 20.972656 27.058594 21.308594 26.921875 21.636719 C 26.785156 21.96875 26.617188 22.277344 26.421875 22.574219 C 26.222656 22.871094 26 23.144531 25.75 23.394531 C 25.496094 23.644531 25.222656 23.871094 24.929688 24.066406 C 24.632812 24.265625 24.320312 24.433594 23.992188 24.566406 C 23.664062 24.703125 23.324219 24.804688 22.976562 24.875 C 22.628906 24.945312 22.277344 24.980469 21.921875 24.980469 C 21.566406 24.980469 21.214844 24.945312 20.867188 24.875 C 20.515625 24.804688 20.179688 24.703125 19.851562 24.566406 C 19.523438 24.433594 19.210938 24.265625 18.914062 24.066406 C 18.617188 23.871094 18.34375 23.644531 18.09375 23.394531 C 17.84375 23.144531 17.617188 22.871094 17.421875 22.574219 C 17.222656 22.277344 17.058594 21.96875 16.921875 21.636719 C 16.785156 21.308594 16.683594 20.972656 16.613281 20.625 C 16.542969 20.273438 16.507812 19.921875 16.507812 19.566406 C 16.507812 19.210938 16.542969 18.859375 16.613281 18.511719 C 16.683594 18.164062 16.785156 17.824219 16.921875 17.496094 C 17.058594 17.167969 17.222656 16.855469 17.421875 16.558594 C 17.617188 16.265625 17.84375 15.992188 18.09375 15.742188 C 18.34375 15.488281 18.617188 15.265625 18.914062 15.066406 C 19.210938 14.871094 19.523438 14.703125 19.851562 14.566406 C 20.179688 14.429688 20.515625 14.328125 20.867188 14.257812 C 21.214844 14.191406 21.566406 14.15625 21.921875 14.15625 C 22.277344 14.15625 22.628906 14.191406 22.976562 14.257812 C 23.324219 14.328125 23.664062 14.429688 23.992188 14.566406 C 24.320312 14.703125 24.632812 14.871094 24.929688 15.066406 C 25.222656 15.265625 25.496094 15.488281 25.75 15.742188 C 26 15.992188 26.222656 16.265625 26.421875 16.558594 C 26.617188 16.855469 26.785156 17.167969 26.921875 17.496094 C 27.058594 17.824219 27.160156 18.164062 27.230469 18.511719 C 27.300781 18.859375 27.332031 19.210938 27.332031 19.566406 Z M 27.332031 19.566406 " fill-opacity="1" fill-rule="nonzero"/></g><path fill="#5bf2ff" d="M 27.332031 68.402344 C 27.332031 68.757812 27.300781 69.113281 27.230469 69.460938 C 27.160156 69.808594 27.058594 70.148438 26.921875 70.476562 C 26.785156 70.804688 26.617188 71.117188 26.421875 71.410156 C 26.222656 71.707031 26 71.980469 25.75 72.230469 C 25.496094 72.484375 25.222656 72.707031 24.929688 72.90625 C 24.632812 73.101562 24.320312 73.269531 23.992188 73.40625 C 23.664062 73.539062 23.324219 73.644531 22.976562 73.710938 C 22.628906 73.78125 22.277344 73.816406 21.921875 73.816406 C 21.566406 73.816406 21.214844 73.78125 20.867188 73.710938 C 20.515625 73.644531 20.179688 73.539062 19.851562 73.40625 C 19.523438 73.269531 19.210938 73.101562 18.914062 72.90625 C 18.617188 72.707031 18.34375 72.484375 18.09375 72.230469 C 17.84375 71.980469 17.617188 71.707031 17.421875 71.410156 C 17.222656 71.117188 17.058594 70.804688 16.921875 70.476562 C 16.785156 70.148438 16.683594 69.808594 16.613281 69.460938 C 16.542969 69.113281 16.507812 68.757812 16.507812 68.402344 C 16.507812 68.046875 16.542969 67.695312 16.613281 67.347656 C 16.683594 67 16.785156 66.660156 16.921875 66.332031 C 17.058594 66.003906 17.222656 65.691406 17.421875 65.398438 C 17.617188 65.101562 17.84375 64.828125 18.09375 64.578125 C 18.34375 64.324219 18.617188 64.101562 18.914062 63.902344 C 19.210938 63.707031 19.523438 63.539062 19.851562 63.402344 C 20.179688 63.269531 20.515625 63.164062 20.867188 63.097656 C 21.214844 63.027344 21.566406 62.992188 21.921875 62.992188 C 22.277344 62.992188 22.628906 63.027344 22.976562 63.097656 C 23.324219 63.164062 23.664062 63.269531 23.992188 63.402344 C 24.320312 63.539062 24.632812 63.707031 24.929688 63.902344 C 25.222656 64.101562 25.496094 64.324219 25.75 64.578125 C 26 64.828125 26.222656 65.101562 26.421875 65.398438 C 26.617188 65.691406 26.785156 66.003906 26.921875 66.332031 C 27.058594 66.660156 27.160156 67 27.230469 67.347656 C 27.300781 67.695312 27.332031 68.046875 27.332031 68.402344 Z M 27.332031 68.402344 " fill-opacity="1" fill-rule="nonzero"/><g clip-path="url(#6aa547cf34)"><path fill="#0071bc" d="M 41.171875 24.230469 C 40.851562 23.910156 40.503906 23.625 40.125 23.375 C 39.75 23.125 39.351562 22.914062 38.9375 22.742188 C 38.519531 22.570312 38.089844 22.4375 37.644531 22.351562 C 37.203125 22.265625 36.753906 22.21875 36.300781 22.21875 C 35.851562 22.21875 35.402344 22.265625 34.960938 22.351562 C 34.515625 22.4375 34.085938 22.570312 33.667969 22.742188 C 33.25 22.914062 32.855469 23.125 32.480469 23.375 C 32.101562 23.625 31.753906 23.910156 31.433594 24.230469 L 2.671875 52.964844 C 2.351562 53.28125 2.066406 53.628906 1.8125 54.003906 C 1.5625 54.382812 1.347656 54.777344 1.175781 55.195312 C 1.003906 55.613281 0.871094 56.042969 0.78125 56.488281 C 0.695312 56.929688 0.648438 57.378906 0.648438 57.832031 C 0.648438 58.285156 0.695312 58.730469 0.78125 59.175781 C 0.871094 59.617188 1.003906 60.050781 1.175781 60.46875 C 1.347656 60.886719 1.5625 61.28125 1.8125 61.65625 C 2.066406 62.03125 2.351562 62.378906 2.671875 62.699219 C 2.992188 63.019531 3.339844 63.304688 3.714844 63.554688 C 4.09375 63.804688 4.488281 64.015625 4.90625 64.1875 C 5.324219 64.359375 5.753906 64.488281 6.199219 64.578125 C 6.640625 64.664062 7.089844 64.710938 7.539062 64.710938 C 7.992188 64.710938 8.4375 64.664062 8.882812 64.578125 C 9.324219 64.488281 9.753906 64.359375 10.171875 64.1875 C 10.589844 64.015625 10.988281 63.804688 11.363281 63.554688 C 11.738281 63.304688 12.089844 63.019531 12.40625 62.699219 L 41.171875 33.988281 C 41.492188 33.667969 41.777344 33.320312 42.027344 32.941406 C 42.28125 32.566406 42.492188 32.167969 42.664062 31.75 C 42.839844 31.332031 42.96875 30.898438 43.058594 30.453125 C 43.144531 30.011719 43.1875 29.5625 43.1875 29.109375 C 43.1875 28.65625 43.144531 28.207031 43.058594 27.761719 C 42.96875 27.320312 42.839844 26.886719 42.664062 26.46875 C 42.492188 26.050781 42.28125 25.652344 42.027344 25.277344 C 41.777344 24.898438 41.492188 24.550781 41.171875 24.230469 Z M 41.171875 24.230469 " fill-opacity="1" fill-rule="nonzero"/></g><g clip-path="url(#e9a8af9cf5)"><path fill="#0071bc" d="M 10.960938 42.28125 L 20.695312 32.546875 L 12.4375 24.230469 C 12.117188 23.910156 11.769531 23.625 11.390625 23.375 C 11.015625 23.125 10.621094 22.914062 10.203125 22.742188 C 9.785156 22.570312 9.355469 22.4375 8.910156 22.351562 C 8.46875 22.265625 8.019531 22.21875 7.570312 22.21875 C 7.117188 22.21875 6.667969 22.265625 6.226562 22.351562 C 5.78125 22.4375 5.351562 22.570312 4.933594 22.742188 C 4.519531 22.914062 4.121094 23.125 3.746094 23.375 C 3.367188 23.625 3.019531 23.910156 2.699219 24.230469 C 2.378906 24.546875 2.09375 24.894531 1.84375 25.273438 C 1.589844 25.648438 1.378906 26.042969 1.203125 26.460938 C 1.03125 26.878906 0.898438 27.308594 0.8125 27.753906 C 0.722656 28.199219 0.679688 28.644531 0.679688 29.097656 C 0.679688 29.550781 0.722656 29.996094 0.8125 30.441406 C 0.898438 30.886719 1.03125 31.316406 1.203125 31.734375 C 1.378906 32.152344 1.589844 32.546875 1.84375 32.921875 C 2.09375 33.300781 2.378906 33.648438 2.699219 33.964844 Z M 10.960938 42.28125 " fill-opacity="1" fill-rule="nonzero"/></g><g clip-path="url(#b162e2b085)"><path fill="#0071bc" d="M 32.878906 44.675781 L 23.140625 54.414062 L 31.40625 62.722656 C 31.726562 63.042969 32.074219 63.324219 32.449219 63.574219 C 32.828125 63.828125 33.222656 64.039062 33.640625 64.210938 C 34.058594 64.382812 34.488281 64.511719 34.929688 64.601562 C 35.375 64.6875 35.820312 64.730469 36.273438 64.730469 C 36.726562 64.730469 37.171875 64.6875 37.617188 64.601562 C 38.058594 64.511719 38.488281 64.382812 38.90625 64.210938 C 39.324219 64.039062 39.722656 63.828125 40.097656 63.574219 C 40.472656 63.324219 40.820312 63.042969 41.140625 62.722656 C 41.460938 62.402344 41.746094 62.054688 41.996094 61.679688 C 42.246094 61.300781 42.457031 60.90625 42.628906 60.488281 C 42.800781 60.070312 42.929688 59.640625 43.019531 59.195312 C 43.105469 58.753906 43.148438 58.304688 43.148438 57.855469 C 43.148438 57.402344 43.105469 56.957031 43.019531 56.511719 C 42.929688 56.070312 42.800781 55.640625 42.628906 55.222656 C 42.457031 54.804688 42.246094 54.40625 41.996094 54.03125 C 41.746094 53.65625 41.460938 53.304688 41.140625 52.984375 Z M 32.878906 44.675781 " fill-opacity="1" fill-rule="nonzero"/></g></svg>